# xmcd
#
# Track frame offsets:
#	182
#	20280
#	37712
#	51385
#	66975
#	81800
#	99637
#	121562
#	133032
#	146600
#
# Disc length: 2168 seconds
#
# Revision: 2
# Processed by: cddbd v1.5.1PL0 Copyright (c) Steve Scherf et al.
# Submitted via: audiograbber 1.83.01
#
DISCID=7f08760a
DTITLE=Various Artist - Various - Hits of the Nineties 1
DYEAR=2000
DGENRE=Country
TTITLE0=Yoakum, Dwight - A Thousand Miles From Nowhere
TTITLE1=McCann, Lila - I Wanna Fall In Love
TTITLE2=Peterson, Michael - Drink, Swear, Steal and Lie
TTITLE3=Sharp, Kevin - Nobody Knows
TTITLE4=Hill, Faith - It Matters To Me
TTITLE5=Brock, Chad - Ordinary Life
TTITLE6=Cochran, Anita and Wariner, Steve - What If I Said
TTITLE7=Tritt, Travis - Here's A Quarter (Call Someone Who Cares)
TTITLE8=Ball, David - Thinkin' Problem
TTITLE9=Travis, Randy - Forever and Ever, Amen
EXTD=
EXTT0=Dwight Yoakam
EXTT1=Lila McCann
EXTT2=Michael Peterson
EXTT3=Kevin Sharp
EXTT4=Faith Hill
EXTT5=Chad Brock
EXTT6=Anita Cochran with Steve Wariner
EXTT7=Travis Tritt
EXTT8=David Ball
EXTT9=Randy Travis
PLAYORDER=
